<svg xmlns="http://www.w3.org/2000/svg" xmlns:xlink="http://www.w3.org/1999/xlink" width="13cm" height="4cm" viewBox="-1 -23 252 63"><g><rect style="fill:#0f0" width="50" height="10" x="0" y="0"/><rect style="fill:none;fill-opacity:0;stroke-width:1;stroke:#000" width="50" height="10" x="0" y="0"/></g><text style="fill:#000;text-anchor:middle;font-family:sans-serif;font-style:normal;font-weight:400" x="25" y="8.125" font-size="9.031"><tspan x="25" y="8.125">mm0</tspan></text><g><rect style="fill:#0f0" width="50" height="10" x="0" y="10"/><rect style="fill:none;fill-opacity:0;stroke-width:1;stroke:#000" width="50" height="10" x="0" y="10"/></g><g><rect style="fill:#0f0" width="50" height="10" x="0" y="20"/><rect style="fill:none;fill-opacity:0;stroke-width:1;stroke:#000" width="50" height="10" x="0" y="20"/></g><g><rect style="fill:#ddd" width="50" height="10" x="0" y="30"/><rect style="fill:none;fill-opacity:0;stroke-width:1;stroke:#000" width="50" height="10" x="0" y="30"/></g><text style="fill:#000;text-anchor:middle;font-family:sans-serif;font-style:normal;font-weight:400" x="25" y="17.993" font-size="9.031"><tspan x="25" y="17.993">mm1</tspan></text><text style="fill:#000;text-anchor:middle;font-family:sans-serif;font-style:normal;font-weight:400" x="25" y="28.125" font-size="9.031"><tspan x="25" y="28.125">mm2</tspan></text><text style="fill:#000;text-anchor:middle;font-family:sans-serif;font-style:normal;font-weight:400" x="25" y="38.125" font-size="9.031"><tspan x="25" y="38.125">mm3</tspan></text><g><rect style="fill:#0f0" width="50" height="10" x="100" y="0"/><rect style="fill:none;fill-opacity:0;stroke-width:1;stroke:#000" width="50" height="10" x="100" y="0"/></g><text style="fill:#000;text-anchor:middle;font-family:sans-serif;font-style:normal;font-weight:400" x="125" y="8.125" font-size="9.031"><tspan x="125" y="8.125">mm0</tspan></text><g><rect style="fill:red" width="50" height="10" x="100" y="10"/><rect style="fill:none;fill-opacity:0;stroke-width:1;stroke:#000" width="50" height="10" x="100" y="10"/></g><g><rect style="fill:#0f0" width="50" height="10" x="100" y="20"/><rect style="fill:none;fill-opacity:0;stroke-width:1;stroke:#000" width="50" height="10" x="100" y="20"/></g><g><rect style="fill:#ddd" width="50" height="10" x="100" y="30"/><rect style="fill:none;fill-opacity:0;stroke-width:1;stroke:#000" width="50" height="10" x="100" y="30"/></g><text style="fill:#fff;text-anchor:middle;font-family:sans-serif;font-style:normal;font-weight:400" x="125" y="18.125" font-size="9.031"><tspan x="125" y="18.125">mm1</tspan></text><text style="fill:#000;text-anchor:middle;font-family:sans-serif;font-style:normal;font-weight:400" x="125" y="28.125" font-size="9.031"><tspan x="125" y="28.125">mm2</tspan></text><text style="fill:#000;text-anchor:middle;font-family:sans-serif;font-style:normal;font-weight:400" x="125" y="38.125" font-size="9.031"><tspan x="125" y="38.125">mm3</tspan></text><g><rect style="fill:#0f0" width="50" height="10" x="200" y="0"/><rect style="fill:none;fill-opacity:0;stroke-width:1;stroke:#000" width="50" height="10" x="200" y="0"/></g><text style="fill:#000;text-anchor:middle;font-family:sans-serif;font-style:normal;font-weight:400" x="225" y="8.125" font-size="9.031"><tspan x="225" y="8.125">mm0</tspan></text><g><rect style="fill:red" width="50" height="10" x="200" y="10"/><rect style="fill:none;fill-opacity:0;stroke-width:1;stroke:#000" width="50" height="10" x="200" y="10"/></g><g><rect style="fill:#0f0" width="50" height="10" x="200" y="20"/><rect style="fill:none;fill-opacity:0;stroke-width:1;stroke:#000" width="50" height="10" x="200" y="20"/></g><g><rect style="fill:#ddd" width="50" height="10" x="200" y="30"/><rect style="fill:none;fill-opacity:0;stroke-width:1;stroke:#000" width="50" height="10" x="200" y="30"/></g><text style="fill:#fff;text-anchor:middle;font-family:sans-serif;font-style:normal;font-weight:400" x="225" y="18.125" font-size="9.031"><tspan x="225" y="18.125">mm1</tspan></text><text style="fill:#000;text-anchor:middle;font-family:sans-serif;font-style:normal;font-weight:400" x="225" y="28.125" font-size="9.031"><tspan x="225" y="28.125">mm2</tspan></text><text style="fill:#000;text-anchor:middle;font-family:sans-serif;font-style:normal;font-weight:400" x="225" y="38.125" font-size="9.031"><tspan x="225" y="38.125">mm3</tspan></text><text style="fill:#000;text-anchor:middle;font-family:sans-serif;font-style:normal;font-weight:400" x="25" y="-10.079" font-size="7.902"><tspan x="25" y="-10.079">Program</tspan></text><text style="fill:#000;text-anchor:middle;font-family:sans-serif;font-style:normal;font-weight:400" x="125" y="-15.018" font-size="7.902"><tspan x="125" y="-15.018">Exception</tspan> <tspan x="125" y="-5.14">Handler</tspan></text><g><line style="fill:none;fill-opacity:0;stroke-width:1;stroke:#000" x1="50" x2="97.764" y1="-12.829" y2="-12.829"/><polyline style="fill:none;fill-opacity:0;stroke-width:1;stroke:#000" points="94.882 -10.829 98.882 -12.829 94.882 -14.829"/></g><g><line style="fill:none;fill-opacity:0;stroke-width:1;stroke:#000" x1="150" x2="197.764" y1="-12.829" y2="-12.829"/><polyline style="fill:none;fill-opacity:0;stroke-width:1;stroke:#000" points="194.882 -10.829 198.882 -12.829 194.882 -14.829"/></g><text style="fill:#000;text-anchor:middle;font-family:sans-serif;font-style:normal;font-weight:400" x="225" y="-10.079" font-size="7.902"><tspan x="225" y="-10.079">Program</tspan></text><text style="fill:#000;text-anchor:middle;font-family:sans-serif;font-style:normal;font-weight:400" x="75" y="-14.737" font-size="6.773"><tspan x="75" y="-14.737">Exception</tspan> <tspan x="75" y="-6.27">occurs</tspan></text><text style="fill:#000;text-anchor:middle;font-family:sans-serif;font-style:normal;font-weight:400" x="175" y="-14.737" font-size="6.773"><tspan x="175" y="-14.737">Exception</tspan> <tspan x="175" y="-6.27">resolved</tspan></text></svg>