<svg xmlns="http://www.w3.org/2000/svg" xmlns:svg="http://www.w3.org/2000/svg" id="svg2" width="960" height="546.588" version="1.1" viewBox="-2141 2141 12027.83 6798.927"><metadata id="metadata370"/><g id="g4" transform="translate(-1191.2249,655.73793)" style="fill:none;stroke:#000;stroke-width:8;stroke-linecap:butt;stroke-linejoin:miter"><rect id="rect8" width="976.54" height="4561.325" x="9807.339" y="3682.549" rx="0" style="fill:#dfdfdf;stroke-width:11.0343523"/><polyline id="polyline10" points="3365 2598 3365 3070" transform="matrix(1.379294,0,0,1.379294,-1920.7977,-1855.3167)"/><polyline id="polyline12" points="3189 2598 3189 3070" transform="matrix(1.379294,0,0,1.379294,-1920.7977,-1855.3167)"/><polyline id="polyline14" points="3012 2598 3012 3070" transform="matrix(1.379294,0,0,1.379294,-1920.7977,-1855.3167)"/><polyline id="polyline16" points="2834 2598 2834 3070" transform="matrix(1.379294,0,0,1.379294,-1920.7977,-1855.3167)"/><polyline id="polyline18" points="2657 2598 2657 3070" transform="matrix(1.379294,0,0,1.379294,-1920.7977,-1855.3167)"/><polyline id="polyline20" points="2480 2598 2480 3070" transform="matrix(1.379294,0,0,1.379294,-1920.7977,-1855.3167)"/><polyline id="polyline22" points="2303 2598 2303 3070" transform="matrix(1.379294,0,0,1.379294,-1920.7977,-1855.3167)"/><polyline id="polyline24" points="2125 2456 2125 3070" transform="matrix(1.379294,0,0,1.379294,-1920.7977,-1855.3167)"/><polyline id="polyline26" points="1948 2598 1948 3070" transform="matrix(1.379294,0,0,1.379294,-1920.7977,-1855.3167)"/><polyline id="polyline28" points="1772 2598 1772 3070" transform="matrix(1.379294,0,0,1.379294,-1920.7977,-1855.3167)"/><polyline id="polyline30" points="1594 2598 1594 3070" transform="matrix(1.379294,0,0,1.379294,-1920.7977,-1855.3167)"/><polyline id="polyline32" points="1417 2598 1417 3070" transform="matrix(1.379294,0,0,1.379294,-1920.7977,-1855.3167)"/><polyline id="polyline34" points="1239 2598 1239 3070" transform="matrix(1.379294,0,0,1.379294,-1920.7977,-1855.3167)"/><polyline id="polyline36" points="1063 2598 1063 3070" transform="matrix(1.379294,0,0,1.379294,-1920.7977,-1855.3167)"/><polyline id="polyline38" points="886 2598 886 3070" transform="matrix(1.379294,0,0,1.379294,-1920.7977,-1855.3167)"/><polyline id="polyline40" points="708 2456 708 3070" transform="matrix(1.379294,0,0,1.379294,-1920.7977,-1855.3167)"/><polyline id="polyline74" points="3543 2456 3543 3070" transform="matrix(1.379294,0,0,1.379294,-1920.7977,-1855.3167)"/><polyline id="polyline76" points="-2125 2598 3543 2598" transform="matrix(0.68935657,0,0,1.379294,523.65071,-1855.3167)"/><polyline id="polyline78" points="3543 3070 -1948 3070 -2125 3070" transform="matrix(0.68670805,0,0,1.379294,533.03432,-1855.3167)"/><polyline id="polyline80" points="9035 2598 9035 3070" transform="matrix(1.379294,0,0,1.379294,-1920.7977,-1855.3167)"/><polyline id="polyline82" points="8858 2598 8858 3070" transform="matrix(1.379294,0,0,1.379294,-1920.7977,-1855.3167)"/><polyline id="polyline84" points="8681 2598 8681 3070" transform="matrix(1.379294,0,0,1.379294,-1920.7977,-1855.3167)"/><polyline id="polyline86" points="8503 2598 8503 3070" transform="matrix(1.379294,0,0,1.379294,-1920.7977,-1855.3167)"/><polyline id="polyline88" points="8326 2598 8326 3070" transform="matrix(1.379294,0,0,1.379294,-1920.7977,-1855.3167)"/><polyline id="polyline90" points="8150 2598 8150 3070" transform="matrix(1.379294,0,0,1.379294,-1920.7977,-1855.3167)"/><polyline id="polyline92" points="7972 2598 7972 3070" transform="matrix(1.379294,0,0,1.379294,-1920.7977,-1855.3167)"/><polyline id="polyline94" points="7795 2456 7795 3070" transform="matrix(1.379294,0,0,1.379294,-1920.7977,-1855.3167)"/><polyline id="polyline96" points="7617 2598 7617 3070" transform="matrix(1.379294,0,0,1.379294,-1920.7977,-1855.3167)"/><polyline id="polyline98" points="7441 2598 7441 3070" transform="matrix(1.379294,0,0,1.379294,-1920.7977,-1855.3167)"/><polyline id="polyline100" points="7264 2598 7264 3070" transform="matrix(1.379294,0,0,1.379294,-1920.7977,-1855.3167)"/><polyline id="polyline102" points="7086 2598 7086 3070" transform="matrix(1.379294,0,0,1.379294,-1920.7977,-1855.3167)"/><polyline id="polyline104" points="6909 2598 6909 3070" transform="matrix(1.379294,0,0,1.379294,-1920.7977,-1855.3167)"/><polyline id="polyline106" points="6732 2598 6732 3070" transform="matrix(1.379294,0,0,1.379294,-1920.7977,-1855.3167)"/><polyline id="polyline108" points="6555 2598 6555 3070" transform="matrix(1.379294,0,0,1.379294,-1920.7977,-1855.3167)"/><polyline id="polyline110" points="6377 2456 6377 3070" transform="matrix(1.379294,0,0,1.379294,-1920.7977,-1855.3167)"/><polyline id="polyline112" points="6200 2598 6200 3070" transform="matrix(1.379294,0,0,1.379294,-1920.7977,-1855.3167)"/><polyline id="polyline114" points="6024 2598 6024 3070" transform="matrix(1.379294,0,0,1.379294,-1920.7977,-1855.3167)"/><polyline id="polyline116" points="5846 2598 5846 3070" transform="matrix(1.379294,0,0,1.379294,-1920.7977,-1855.3167)"/><polyline id="polyline118" points="5669 2598 5669 3070" transform="matrix(1.379294,0,0,1.379294,-1920.7977,-1855.3167)"/><polyline id="polyline120" points="5491 2598 5491 3070" transform="matrix(1.379294,0,0,1.379294,-1920.7977,-1855.3167)"/><polyline id="polyline122" points="5315 2598 5315 3070" transform="matrix(1.379294,0,0,1.379294,-1920.7977,-1855.3167)"/><polyline id="polyline124" points="5138 2598 5138 3070" transform="matrix(1.379294,0,0,1.379294,-1920.7977,-1855.3167)"/><polyline id="polyline126" points="4960 2409 4960 3070" transform="matrix(1.379294,0,0,1.379294,-1920.7977,-1855.3167)"/><polyline id="polyline128" points="4783 2598 4783 3070" transform="matrix(1.379294,0,0,1.379294,-1920.7977,-1855.3167)"/><polyline id="polyline130" points="4606 2598 4606 3070" transform="matrix(1.379294,0,0,1.379294,-1920.7977,-1855.3167)"/><polyline id="polyline132" points="4429 2598 4429 3070" transform="matrix(1.379294,0,0,1.379294,-1920.7977,-1855.3167)"/><polyline id="polyline134" points="4251 2598 4251 3070" transform="matrix(1.379294,0,0,1.379294,-1920.7977,-1855.3167)"/><polyline id="polyline136" points="4074 2598 4074 3070" transform="matrix(1.379294,0,0,1.379294,-1920.7977,-1855.3167)"/><polyline id="polyline138" points="3898 2598 3898 3070" transform="matrix(1.379294,0,0,1.379294,-1920.7977,-1855.3167)"/><polyline id="polyline140" points="3720 2598 3720 3070" transform="matrix(1.379294,0,0,1.379294,-1920.7977,-1855.3167)"/><polyline id="polyline142" points="9212 2456 9212 3070" transform="matrix(1.379294,0,0,1.379294,-1920.7977,-1855.3167)"/><polyline id="polyline144" points="3543 2598 9212 2598" transform="matrix(1.379294,0,0,1.379294,-1920.7977,-1855.3167)"/><polyline id="polyline146" points="9212 3070 3720 3070 0 3070" transform="matrix(1.2735745,0,0,1.379294,-946.90931,-1855.3167)"/><rect id="rect148" width="1628.946" height="3257.893" x="5116.36" y="4334.955" rx="0" style="fill:#dfdfdf;stroke-width:11.0343523"/><rect id="rect150" width="1628.946" height="3257.893" x="981.536" y="4008.062" rx="0" style="fill:#dfdfdf;stroke-width:11.0343523"/><rect id="rect152" width="1628.946" height="3257.893" x="7592.193" y="4660.468" rx="0" style="fill:#dfdfdf;stroke-width:11.0343523"/><rect id="rect158" width="976.54" height="325.513" x="9807.339" y="5638.388" rx="0" style="fill:#dfdfdf;stroke-width:11.0343523"/><rect style="stroke-width:11.0343523" id="rect160" width="1628.946" height="651.027" x="5116.36" y="5963.901" rx="0"/><rect style="stroke-width:11.0343523" id="rect162" width="1628.946" height="651.027" x="981.536" y="5862.367" rx="0"/><rect style="stroke-width:11.0343523" id="rect164" width="1628.946" height="651.027" x="7592.193" y="6289.415" rx="0"/><circle id="circle170" cx="6549.447" cy="6289.415" r="64.827" style="fill:#00f;stroke:#00f;stroke-width:44.13740921"/><circle id="circle172" cx="2414.622" cy="6187.88" r="64.827" style="fill:#00f;stroke:#00f;stroke-width:44.13740921"/><circle id="circle174" cx="9026.659" cy="6614.928" r="64.827" style="fill:#00f;stroke:#00f;stroke-width:44.13740921"/><polyline id="polyline178" points="3118 3590 2834 3779" transform="matrix(1.379294,0,0,1.379294,-1920.7977,-1855.3167)" style="stroke:#00f"/><polyline id="polyline180" points="1322 3590 1039 3779" transform="matrix(1.379294,0,0,1.379294,-1920.7977,-1855.3167)" style="stroke:#008200;stroke-opacity:1"/><polyline id="polyline184" points="4913 3590 4629 3779" transform="matrix(1.379294,0,0,1.379294,-1920.7977,-1855.3167)" style="stroke:#00f"/><polyline id="polyline186" points="6519 3590 6236 3779" transform="matrix(1.379294,0,0,1.379294,-1920.7977,-1855.3167)" style="stroke:#00f"/><polyline id="polyline188" points="8314 3590 8031 3779" transform="matrix(1.379294,0,0,1.379294,-1920.7977,-1855.3167)" style="stroke:#00f"/><polyline id="polyline196" points="7937 6141 8173 6141 8173 7322 8346 7322" transform="matrix(1.379294,0,0,1.379294,-1920.7977,-1855.3167)" style="stroke:#00f"/><polygon id="polygon198" points="8504 7322 8347 7275 8347 7370 8347 7370" transform="matrix(1.379294,0,0,1.379294,-1920.7977,-1855.3167)" style="fill:#00f;stroke:#00f"/><polyline id="polyline200" points="8173 3543 8173 5669 8346 5669" transform="matrix(1.379294,0,0,1.379294,-1920.7977,-1855.3167)" style="stroke:#00f"/><polygon id="polygon202" points="8504 5669 8347 5622 8347 5716 8347 5716" transform="matrix(1.379294,0,0,1.379294,-1920.7977,-1855.3167)" style="fill:#00f;stroke:#00f"/><polyline id="polyline204" points="9212 3070 9070 3307 8314 3307 8173 3543 8031 3307 7228 3307 7086 3070" transform="matrix(1.379294,0,0,1.379294,-1920.7977,-1855.3167)" style="stroke:#00f"/><polyline id="polyline206" points="3898 3070 4015 3307 4629 3307 4771 3543 4913 3307 5385 3307 5491 3070" transform="matrix(1.379294,0,0,1.379294,-1920.7977,-1855.3167)" style="stroke:#00f"/><polyline id="polyline208" points="5491 3070 5622 3307 6236 3307 6377 3543 6519 3307 6909 3307 7086 3070" transform="matrix(1.379294,0,0,1.379294,-1920.7977,-1855.3167)" style="stroke:#00f"/><polyline id="polyline210" points="2303 3070 2409 3307 2834 3307 2976 3543 3118 3307 3779 3307 3898 3070" transform="matrix(1.379294,0,0,1.379294,-1920.7977,-1855.3167)" style="stroke:#00f"/><polyline id="polyline212" points="708 3070 850 3307 1039 3307 1181 3543 1322 3307 2173 3307 2303 3070" transform="matrix(1.379294,0,0,1.379294,-1920.7977,-1855.3167)" style="stroke:#008200;stroke-opacity:1"/><polyline id="polyline214" points="4771 3543 4771 6141 4944 6141" transform="matrix(1.379294,0,0,1.379294,-1920.7977,-1855.3167)" style="stroke:#00f"/><polygon id="polygon216" points="5103 6141 4945 6094 4945 6188 4945 6188" transform="matrix(1.379294,0,0,1.379294,-1920.7977,-1855.3167)" style="fill:#00f;stroke:#00f"/><polyline id="polyline218" points="6377 3543 6377 4015 6519 4157 6519 6377 6740 6377" transform="matrix(1.379294,0,0,1.379294,-1920.7977,-1855.3167)" style="stroke:#00f"/><polygon id="polygon220" points="6898 6377 6741 6330 6741 6425 6741 6425" transform="matrix(1.379294,0,0,1.379294,-1920.7977,-1855.3167)" style="fill:#00f;stroke:#00f"/><polyline id="polyline222" points="6141 5905 6377 5905 6377 7086 6740 7086" transform="matrix(1.379294,0,0,1.379294,-1920.7977,-1855.3167)" style="stroke:#00f"/><polygon id="polygon224" points="6898 7086 6741 7039 6741 7133 6741 7133" transform="matrix(1.379294,0,0,1.379294,-1920.7977,-1855.3167)" style="fill:#00f;stroke:#00f"/><polygon id="polygon228" points="5103 6850 4945 6803 4945 6897 4945 6897" transform="matrix(1.379294,0,0,1.379294,-1920.7977,-1855.3167)" style="fill:#00f;stroke:#00f"/><polygon id="polygon232" points="3150 6566 3150 6661 3150 6661 3308 6614" transform="matrix(1.379294,0,0,1.379294,-3569.8125,-4453.6585)" style="fill:#008200;stroke:#008200;stroke-opacity:1;fill-opacity:1"/><polygon id="polygon240" points="3308 5905 3150 5858 3150 5952 3150 5952" transform="matrix(1.379294,0,0,1.379294,-3579.7896,-1631.3389)" style="fill:#00f;stroke:#00f;stroke-opacity:1;fill-opacity:1"/><g id="g242" style="fill:#000;stroke-width:0"><text style="font-style:normal;font-weight:400;font-size:209.6526947px;font-family:'Helvetica Narrow';text-anchor:end;stroke-width:0" id="text246" x="2916.387" y="1663.262" font-size="152" font-style="normal" font-weight="normal" xml:space="preserve">32</text><text style="font-style:normal;font-weight:400;font-size:209.6526947px;font-family:'Helvetica Narrow';text-anchor:start;stroke-width:0" id="text248" x="1059.857" y="1663.262" font-size="152" font-style="normal" font-weight="normal" xml:space="preserve">39</text><text style="font-style:normal;font-weight:400;font-size:209.6526947px;font-family:'Helvetica Narrow';text-anchor:end;stroke-width:0" id="text250" x="961.927" y="1663.262" font-size="152" font-style="normal" font-weight="normal" xml:space="preserve">40</text><text style="font-style:normal;font-weight:400;font-size:209.6526947px;font-family:'Helvetica Narrow';text-anchor:start;stroke-width:0" id="text252" x="-894.603" y="1663.262" font-size="152" font-style="normal" font-weight="normal" xml:space="preserve">47</text><text style="font-style:normal;font-weight:400;font-size:209.6526947px;font-family:'Helvetica Narrow';text-anchor:end;stroke-width:0" id="text262" x="10735.604" y="1663.262" font-size="152" font-style="normal" font-weight="normal" xml:space="preserve">0</text><text style="font-style:normal;font-weight:400;font-size:209.6526947px;font-family:'Helvetica Narrow';text-anchor:end;stroke-width:0" id="text264" x="8781.145" y="1663.262" font-size="152" font-style="normal" font-weight="normal" xml:space="preserve">8</text><text style="font-style:normal;font-weight:400;font-size:209.6526947px;font-family:'Helvetica Narrow';text-anchor:end;stroke-width:0" id="text266" x="6826.685" y="1663.262" font-size="152" font-style="normal" font-weight="normal" xml:space="preserve">16</text><text style="font-style:normal;font-weight:400;font-size:209.6526947px;font-family:'Helvetica Narrow';text-anchor:end;stroke-width:0" id="text268" x="4870.846" y="1663.262" font-size="152" font-style="normal" font-weight="normal" xml:space="preserve">24</text><text style="font-style:normal;font-weight:400;font-size:209.6526947px;font-family:'Helvetica Narrow';text-anchor:start;stroke-width:0" id="text270" x="3015.696" y="1663.262" font-size="152" font-style="normal" font-weight="normal" xml:space="preserve">31</text><text style="font-style:normal;font-weight:400;font-size:209.6526947px;font-family:'Helvetica Narrow';text-anchor:start;stroke-width:0" id="text272" x="6924.615" y="1663.262" font-size="152" font-style="normal" font-weight="normal" xml:space="preserve">15</text><text style="font-style:normal;font-weight:400;font-size:209.6526947px;font-family:'Helvetica Narrow';text-anchor:start;stroke-width:0" id="text274" x="8879.074" y="1663.262" font-size="152" font-style="normal" font-weight="normal" xml:space="preserve">7</text><text style="font-style:normal;font-weight:400;font-size:209.6526947px;font-family:'Helvetica Narrow';text-anchor:start;stroke-width:0" id="text276" x="4970.155" y="1663.262" font-size="152" font-style="normal" font-weight="normal" xml:space="preserve">23</text><g id="g278" transform="matrix(0,-1.379294,1.379294,0,10459.745,4660.4683)"><text style="font-style:normal;font-weight:400;font-size:404px;font-family:Helvetica;text-anchor:middle" id="text280" x="0" y="0" font-size="404" font-style="normal" font-weight="normal" xml:space="preserve">...</text></g><g id="g282" transform="matrix(0,-1.379294,1.379294,0,10459.745,7267.334)"><text style="font-style:normal;font-weight:400;font-size:404px;font-family:Helvetica;text-anchor:middle" id="text284" x="0" y="0" font-size="404" font-style="normal" font-weight="normal" xml:space="preserve">...</text></g><g id="g286" transform="matrix(0,-1.379294,1.379294,0,11073.906,5899.0743)"><text style="font-style:normal;font-weight:400;font-size:152px;font-family:Helvetica;text-anchor:middle" id="text288" x="0" y="0" font-size="152" font-style="normal" font-weight="normal" xml:space="preserve"><tspan id="tspan3509" style="font-size:200.46391296px">P1 table</tspan></text></g><text style="font-style:normal;font-weight:400;font-size:209.6526947px;font-family:Helvetica;text-anchor:middle;stroke-width:0" id="text292" x="5833.593" y="6363.148" font-size="152" font-style="normal" font-weight="normal" xml:space="preserve"><tspan id="tspan3497" style="font-size:276.49868774px;stroke-width:0">P3 entry</tspan></text><g id="g296" transform="matrix(0,-1.379294,1.379294,0,5972.902,7267.334)"><text style="font-style:normal;font-weight:400;font-size:404px;font-family:Helvetica;text-anchor:middle" id="text298" x="0" y="0" font-size="404" font-style="normal" font-weight="normal" xml:space="preserve">...</text></g><g id="g300" transform="matrix(0,-1.379294,1.379294,0,5972.902,5311.495)"><text style="font-style:normal;font-weight:400;font-size:404px;font-family:Helvetica;text-anchor:middle" id="text302" x="0" y="0" font-size="404" font-style="normal" font-weight="normal" xml:space="preserve">...</text></g><text style="font-style:normal;font-weight:400;font-size:209.6526947px;font-family:Helvetica;text-anchor:middle;stroke-width:0" id="text304" x="5930.144" y="4203.922" font-size="152" font-style="normal" font-weight="normal" xml:space="preserve"><tspan id="tspan3505" style="font-size:276.49868774px;stroke-width:0">P3 table</tspan></text><g id="g306" transform="matrix(0,-1.379294,1.379294,0,1838.0785,6861.1866)"><text style="font-style:normal;font-weight:400;font-size:404px;font-family:Helvetica;text-anchor:middle" id="text308" x="0" y="0" font-size="404" font-style="normal" font-weight="normal" xml:space="preserve">...</text></g><g id="g310" transform="matrix(0,-1.379294,1.379294,0,1838.0785,5231.1544)"><text style="font-style:normal;font-weight:400;font-size:404px;font-family:Helvetica;text-anchor:middle" id="text312" x="0" y="0" font-size="404" font-style="normal" font-weight="normal" xml:space="preserve">...</text></g><text style="font-style:normal;font-weight:400;font-size:209.6526947px;font-family:Helvetica;text-anchor:middle;stroke-width:0" id="text314" x="1697.389" y="6261.613" font-size="152" font-style="normal" font-weight="normal" xml:space="preserve"><tspan id="tspan3495" style="font-size:276.49868774px;stroke-width:0">P4 entry</tspan></text><text style="font-style:normal;font-weight:400;font-size:209.6526947px;font-family:Helvetica;text-anchor:middle;stroke-width:0" id="text320" x="1763.596" y="3878.408" font-size="152" font-style="normal" font-weight="normal" xml:space="preserve"><tspan id="tspan3503" style="font-size:276.49868774px;stroke-width:0">P4 table</tspan></text><text style="font-style:normal;font-weight:400;font-size:209.6526947px;font-family:Helvetica;text-anchor:middle;stroke-width:0" id="text322" x="8309.426" y="6688.661" font-size="152" font-style="normal" font-weight="normal" xml:space="preserve"><tspan id="tspan3499" style="font-size:276.49868774px;stroke-width:0">P2 entry</tspan></text><g id="g326" transform="matrix(0,-1.379294,1.379294,0,8450.114,7592.8473)"><text style="font-style:normal;font-weight:400;font-size:404px;font-family:Helvetica;text-anchor:middle" id="text328" x="0" y="0" font-size="404" font-style="normal" font-weight="normal" xml:space="preserve">...</text></g><g id="g330" transform="matrix(0,-1.379294,1.379294,0,8450.114,5638.3877)"><text style="font-style:normal;font-weight:400;font-size:404px;font-family:Helvetica;text-anchor:middle" id="text332" x="0" y="0" font-size="404" font-style="normal" font-weight="normal" xml:space="preserve">...</text></g><text style="font-style:normal;font-weight:400;font-size:209.6526947px;font-family:Helvetica;text-anchor:middle;stroke-width:0" id="text334" x="8405.977" y="4529.435" font-size="152" font-style="normal" font-weight="normal" xml:space="preserve"><tspan id="tspan3507" style="font-size:276.49868774px;stroke-width:0">P2 table</tspan></text><text style="font-style:normal;font-weight:400;font-size:209.6526947px;font-family:Helvetica;text-anchor:start;fill:#00f;stroke-width:0" id="text350" x="2444.668" y="3292.209" font-size="152" font-style="normal" font-weight="normal">9</text><text style="font-style:normal;font-weight:400;font-size:209.6526947px;font-family:Helvetica;text-anchor:start;fill:#008200;stroke-width:0;fill-opacity:1" id="text352" x="-31.165" y="3292.209" font-size="152" font-style="normal" font-weight="normal">9</text><text style="font-style:normal;font-weight:400;font-size:209.6526947px;font-family:Helvetica;text-anchor:start;fill:#00f;stroke-width:0" id="text356" x="4920.501" y="3292.209" font-size="152" font-style="normal" font-weight="normal">9</text><text style="font-style:normal;font-weight:400;font-size:209.6526947px;font-family:Helvetica;text-anchor:start;fill:#00f;stroke-width:0" id="text358" x="7135.647" y="3292.209" font-size="152" font-style="normal" font-weight="normal">9</text><text style="font-style:normal;font-weight:400;font-size:209.6526947px;font-family:Helvetica;text-anchor:start;fill:#00f;stroke-width:0" id="text360" x="9612.858" y="3292.209" font-size="152" font-style="normal" font-weight="normal">12</text><rect id="rect162-5" width="1628.946" height="651.027" x="982.915" y="4006.73" rx="0" style="fill:none;stroke:#000;stroke-width:11.03435135;stroke-linecap:butt;stroke-linejoin:miter"/><circle id="circle172-4" cx="2416.001" cy="4348.301" r="64.827" style="fill:#008200;stroke:#008200;stroke-width:44.1374054;stroke-linecap:butt;stroke-linejoin:miter;stroke-opacity:1;fill-opacity:1"/><text style="font-style:normal;font-weight:400;font-size:209.6526947px;font-family:Helvetica;text-anchor:middle;fill:#000;stroke:#000;stroke-width:0;stroke-linecap:butt;stroke-linejoin:miter" id="text314-5" x="1698.768" y="4422.034" font-size="152" font-style="normal" font-weight="normal" xml:space="preserve"><tspan id="tspan3495-6" style="font-size:276.49868774px;stroke-width:0">P4 entry</tspan></text><text style="font-style:normal;font-weight:400;font-size:209.6526947px;font-family:Helvetica;text-anchor:middle;fill:#000;stroke:#000;stroke-width:0;stroke-linecap:butt;stroke-linejoin:miter" id="text314-5-0" x="1956.965" y="7707.292" font-size="152" font-style="normal" font-weight="normal" xml:space="preserve"><tspan id="tspan3495-6-4" style="font-size:276.49868774px;stroke-width:0">Recursive</tspan></text><text style="font-style:normal;font-weight:400;font-size:209.6526947px;font-family:Helvetica;text-anchor:middle;fill:#000;stroke:#000;stroke-width:0;stroke-linecap:butt;stroke-linejoin:miter" id="text314-5-0-9" x="1956.965" y="8075.957" font-size="152" font-style="normal" font-weight="normal" xml:space="preserve"><tspan id="tspan3495-6-4-4" style="font-size:276.49868774px;stroke-width:0">Mapping</tspan></text><text style="font-style:normal;font-variant:normal;font-weight:400;font-stretch:normal;font-size:434.33852656px;line-height:125%;font-family:Helvetica;-inkscape-font-specification:'Helvetica, Normal';text-align:center;writing-mode:lr;text-anchor:middle;fill:#000;stroke:#000;stroke-width:0;stroke-linecap:butt;stroke-linejoin:miter" id="text320-4" x="174.734" y="2223.68" font-size="152" font-style="normal" font-weight="normal" transform="scale(1.0062563,0.9937826)" xml:space="preserve"><tspan id="tspan3503-4" style="font-style:normal;font-variant:normal;font-weight:400;font-stretch:normal;font-size:434.33852656px;line-height:125%;font-family:Helvetica;-inkscape-font-specification:'Helvetica, Normal';text-align:center;writing-mode:lr;text-anchor:middle;stroke-width:0">111111111</tspan></text><text style="font-style:normal;font-variant:normal;font-weight:400;font-stretch:normal;font-size:183.75862122px;line-height:125%;font-family:Helvetica;-inkscape-font-specification:'Helvetica, Normal';text-align:center;writing-mode:lr-tb;text-anchor:middle;fill:#4d4d4d;stroke:#000;stroke-width:0;stroke-linecap:butt;stroke-linejoin:miter" id="text320-2-1" x="2802.207" y="4716.215" font-size="152" font-style="normal" font-weight="normal" transform="scale(1.0062563,0.9937826)" xml:space="preserve"><tspan id="tspan3503-48-5" style="font-style:normal;font-variant:normal;font-weight:400;font-stretch:normal;font-size:183.75862122px;line-height:125%;font-family:Helvetica;-inkscape-font-specification:'Helvetica, Normal';text-align:center;writing-mode:lr-tb;text-anchor:middle;fill:#4d4d4d;stroke-width:0">511</tspan></text><text style="font-style:normal;font-variant:normal;font-weight:400;font-stretch:normal;font-size:183.75862122px;line-height:125%;font-family:Helvetica;-inkscape-font-specification:'Helvetica, Normal';text-align:center;writing-mode:lr-tb;text-anchor:middle;fill:#4d4d4d;stroke:#000;stroke-width:0;stroke-linecap:butt;stroke-linejoin:miter" id="text320-2-1-7" x="2705.413" y="7325.353" font-size="152" font-style="normal" font-weight="normal" transform="scale(1.0062563,0.9937826)" xml:space="preserve"><tspan id="tspan3503-48-5-5" style="font-style:normal;font-variant:normal;font-weight:400;font-stretch:normal;font-size:183.75862122px;line-height:125%;font-family:Helvetica;-inkscape-font-specification:'Helvetica, Normal';text-align:center;writing-mode:lr-tb;text-anchor:middle;fill:#4d4d4d;stroke-width:0">0</tspan></text></g><polygon id="polygon232-0" points="3308 6614 3150 6566 3150 6661 3150 6661" transform="matrix(-0.04389183,-1.3785956,1.3785953,-0.04389183,-7995.0788,12097.331)" style="fill:#008200;stroke:#008200;stroke-width:8;stroke-linecap:butt;stroke-linejoin:miter;fill-opacity:1;stroke-opacity:1"/><path id="path5151" d="m -292.5695,3029.8018 0,1648.7878 1061.05167,0" style="fill:none;fill-rule:evenodd;stroke:#008200;stroke-width:11.51537418px;stroke-linecap:butt;stroke-linejoin:miter;stroke-opacity:1"/><path id="path5163" d="m 2487.8993,6199.9673 1108.0428,0 0,1396.1489 1339.0484,0" style="fill:none;fill-rule:evenodd;stroke:#00f;stroke-width:13.35819244px;stroke-linecap:butt;stroke-linejoin:miter;stroke-opacity:1"/><path id="path8262" d="m 2441.1315,4342.5153 671.7486,0 0,3479.3916 -2127.20375,0 0,-369.635" style="fill:none;fill-rule:evenodd;stroke:#008200;stroke-width:13.34314156px;stroke-linecap:butt;stroke-linejoin:miter;stroke-opacity:1"/><path id="path8804" d="m 2184.0301,3027.3022 0,462.8423 -1977.64646,0 0,3024.4353 578.82333,0" style="fill:none;fill-rule:evenodd;stroke:#00f;stroke-width:13.33202076px;stroke-linecap:butt;stroke-linejoin:miter;stroke-opacity:1"/></g></svg>