<svg xmlns="http://www.w3.org/2000/svg" xmlns:svg="http://www.w3.org/2000/svg" id="svg2" width="900.004" height="145.451" version="1.1" viewBox="-2141 2141 12027.883 1929.858"><metadata id="metadata370"/><g id="g4" transform="translate(331.35503,-225.83102)" style="fill:none;stroke:#000;stroke-width:8;stroke-linecap:butt;stroke-linejoin:miter"><polyline style="stroke-width:12.6820428;stroke-miterlimit:4;stroke-dasharray:none" id="polyline10" points="3365 2598 3365 3070" transform="matrix(1.0598349,0,0,1.0477876,-211.91044,-157.78641)"/><polyline style="stroke-width:12.6820428;stroke-miterlimit:4;stroke-dasharray:none" id="polyline12" points="3189 2598 3189 3070" transform="matrix(1.0598349,0,0,1.0477876,-211.91044,-157.78641)"/><polyline style="stroke-width:12.6820428;stroke-miterlimit:4;stroke-dasharray:none" id="polyline14" points="3012 2598 3012 3070" transform="matrix(1.0598349,0,0,1.0477876,-211.91044,-157.78641)"/><polyline style="stroke-width:12.6820428;stroke-miterlimit:4;stroke-dasharray:none" id="polyline16" points="2834 2598 2834 3070" transform="matrix(1.0598349,0,0,1.0477876,-211.91044,-157.78641)"/><polyline style="stroke-width:12.6820428;stroke-miterlimit:4;stroke-dasharray:none" id="polyline18" points="2657 2598 2657 3070" transform="matrix(1.0598349,0,0,1.0477876,-211.91044,-157.78641)"/><polyline style="stroke-width:12.6820428;stroke-miterlimit:4;stroke-dasharray:none" id="polyline20" points="2480 2598 2480 3070" transform="matrix(1.0598349,0,0,1.0477876,-211.91044,-157.78641)"/><polyline style="stroke-width:12.6820428;stroke-miterlimit:4;stroke-dasharray:none" id="polyline22" points="2303 2598 2303 3070" transform="matrix(1.0598349,0,0,1.0477876,-211.91044,-157.78641)"/><polyline style="stroke-width:25.36408559;stroke-miterlimit:4;stroke-dasharray:none" id="polyline24" points="2125 2456 2125 3070" transform="matrix(1.0598349,0,0,1.0477876,-211.91044,-157.78641)"/><polyline style="stroke-width:12.6820428;stroke-miterlimit:4;stroke-dasharray:none" id="polyline26" points="1948 2598 1948 3070" transform="matrix(1.0598349,0,0,1.0477876,-211.91044,-157.78641)"/><polyline style="stroke-width:12.6820428;stroke-miterlimit:4;stroke-dasharray:none" id="polyline28" points="1772 2598 1772 3070" transform="matrix(1.0598349,0,0,1.0477876,-211.91044,-157.78641)"/><polyline style="stroke-width:12.6820428;stroke-miterlimit:4;stroke-dasharray:none" id="polyline30" points="1594 2598 1594 3070" transform="matrix(1.0598349,0,0,1.0477876,-211.91044,-157.78641)"/><polyline style="stroke-width:12.6820428;stroke-miterlimit:4;stroke-dasharray:none" id="polyline32" points="1417 2598 1417 3070" transform="matrix(1.0598349,0,0,1.0477876,-211.91044,-157.78641)"/><polyline style="stroke-width:12.6820428;stroke-miterlimit:4;stroke-dasharray:none" id="polyline34" points="1239 2598 1239 3070" transform="matrix(1.0598349,0,0,1.0477876,-211.91044,-157.78641)"/><polyline style="stroke-width:12.6820428;stroke-miterlimit:4;stroke-dasharray:none" id="polyline36" points="1063 2598 1063 3070" transform="matrix(1.0598349,0,0,1.0477876,-211.91044,-157.78641)"/><polyline style="stroke-width:12.6820428;stroke-miterlimit:4;stroke-dasharray:none" id="polyline38" points="886 2598 886 3070" transform="matrix(1.0598349,0,0,1.0477876,-211.91044,-157.78641)"/><polyline style="stroke-width:25.36408559;stroke-miterlimit:4;stroke-dasharray:none" id="polyline40" points="708 2456 708 3070" transform="matrix(1.0598349,0,0,1.0477876,-211.91044,-157.78641)"/><polyline style="stroke-width:25.36408559;stroke-miterlimit:4;stroke-dasharray:none" id="polyline74" points="3543 2456 3543 3070" transform="matrix(1.0598349,0,0,1.0477876,-211.91044,-157.78641)"/><polyline style="stroke-width:17.93889427;stroke-miterlimit:4;stroke-dasharray:none" id="polyline76" points="-2125 2598 3543 2598" transform="matrix(0.52969427,0,0,1.0477876,1661.7387,-151.61082)"/><polyline style="stroke-width:17.97345503;stroke-miterlimit:4;stroke-dasharray:none" id="polyline78" points="3543 3070 -1948 3070 -2125 3070" transform="matrix(0.52765919,0,0,1.0477876,1673.588,-157.78641)"/><polyline style="stroke-width:12.6820428;stroke-miterlimit:4;stroke-dasharray:none" id="polyline80" points="9035 2598 9035 3070" transform="matrix(1.0598349,0,0,1.0477876,-211.91044,-157.78641)"/><polyline style="stroke-width:12.6820428;stroke-miterlimit:4;stroke-dasharray:none" id="polyline82" points="8858 2598 8858 3070" transform="matrix(1.0598349,0,0,1.0477876,-211.91044,-157.78641)"/><polyline style="stroke-width:12.6820428;stroke-miterlimit:4;stroke-dasharray:none" id="polyline84" points="8681 2598 8681 3070" transform="matrix(1.0598349,0,0,1.0477876,-211.91044,-157.78641)"/><polyline style="stroke-width:12.6820428;stroke-miterlimit:4;stroke-dasharray:none" id="polyline86" points="8503 2598 8503 3070" transform="matrix(1.0598349,0,0,1.0477876,-211.91044,-157.78641)"/><polyline style="stroke-width:12.6820428;stroke-miterlimit:4;stroke-dasharray:none" id="polyline88" points="8326 2598 8326 3070" transform="matrix(1.0598349,0,0,1.0477876,-211.91044,-157.78641)"/><polyline style="stroke-width:12.6820428;stroke-miterlimit:4;stroke-dasharray:none" id="polyline90" points="8150 2598 8150 3070" transform="matrix(1.0598349,0,0,1.0477876,-211.91044,-157.78641)"/><polyline style="stroke-width:12.6820428;stroke-miterlimit:4;stroke-dasharray:none" id="polyline92" points="7972 2598 7972 3070" transform="matrix(1.0598349,0,0,1.0477876,-211.91044,-157.78641)"/><polyline style="stroke-width:25.36408559;stroke-miterlimit:4;stroke-dasharray:none" id="polyline94" points="7795 2456 7795 3070" transform="matrix(1.0598349,0,0,1.0477876,-211.91044,-157.78641)"/><polyline style="stroke-width:12.6820428;stroke-miterlimit:4;stroke-dasharray:none" id="polyline96" points="7617 2598 7617 3070" transform="matrix(1.0598349,0,0,1.0477876,-211.91044,-157.78641)"/><polyline style="stroke-width:12.6820428;stroke-miterlimit:4;stroke-dasharray:none" id="polyline98" points="7441 2598 7441 3070" transform="matrix(1.0598349,0,0,1.0477876,-211.91044,-157.78641)"/><polyline style="stroke-width:12.6820428;stroke-miterlimit:4;stroke-dasharray:none" id="polyline100" points="7264 2598 7264 3070" transform="matrix(1.0598349,0,0,1.0477876,-211.91044,-157.78641)"/><polyline style="stroke-width:12.6820428;stroke-miterlimit:4;stroke-dasharray:none" id="polyline102" points="7086 2598 7086 3070" transform="matrix(1.0598349,0,0,1.0477876,-211.91044,-157.78641)"/><polyline style="stroke-width:12.6820428;stroke-miterlimit:4;stroke-dasharray:none" id="polyline104" points="6909 2598 6909 3070" transform="matrix(1.0598349,0,0,1.0477876,-211.91044,-157.78641)"/><polyline style="stroke-width:12.6820428;stroke-miterlimit:4;stroke-dasharray:none" id="polyline106" points="6732 2598 6732 3070" transform="matrix(1.0598349,0,0,1.0477876,-211.91044,-157.78641)"/><polyline style="stroke-width:12.6820428;stroke-miterlimit:4;stroke-dasharray:none" id="polyline108" points="6555 2598 6555 3070" transform="matrix(1.0598349,0,0,1.0477876,-211.91044,-157.78641)"/><polyline style="stroke-width:25.36408559;stroke-miterlimit:4;stroke-dasharray:none" id="polyline110" points="6377 2456 6377 3070" transform="matrix(1.0598349,0,0,1.0477876,-211.91044,-157.78641)"/><polyline style="stroke-width:12.6820428;stroke-miterlimit:4;stroke-dasharray:none" id="polyline112" points="6200 2598 6200 3070" transform="matrix(1.0598349,0,0,1.0477876,-211.91044,-157.78641)"/><polyline style="stroke-width:12.6820428;stroke-miterlimit:4;stroke-dasharray:none" id="polyline114" points="6024 2598 6024 3070" transform="matrix(1.0598349,0,0,1.0477876,-211.91044,-157.78641)"/><polyline style="stroke-width:12.6820428;stroke-miterlimit:4;stroke-dasharray:none" id="polyline116" points="5846 2598 5846 3070" transform="matrix(1.0598349,0,0,1.0477876,-211.91044,-157.78641)"/><polyline style="stroke-width:12.6820428;stroke-miterlimit:4;stroke-dasharray:none" id="polyline118" points="5669 2598 5669 3070" transform="matrix(1.0598349,0,0,1.0477876,-211.91044,-157.78641)"/><polyline style="stroke-width:12.6820428;stroke-miterlimit:4;stroke-dasharray:none" id="polyline120" points="5491 2598 5491 3070" transform="matrix(1.0598349,0,0,1.0477876,-211.91044,-157.78641)"/><polyline style="stroke-width:12.6820428;stroke-miterlimit:4;stroke-dasharray:none" id="polyline122" points="5315 2598 5315 3070" transform="matrix(1.0598349,0,0,1.0477876,-211.91044,-157.78641)"/><polyline style="stroke-width:12.6820428;stroke-miterlimit:4;stroke-dasharray:none" id="polyline124" points="5138 2598 5138 3070" transform="matrix(1.0598349,0,0,1.0477876,-211.91044,-157.78641)"/><polyline style="stroke-width:25.36408615;stroke-miterlimit:4;stroke-dasharray:none" id="polyline126" points="4960 2409 4960 3070" transform="matrix(1.0598349,0,0,0.97582891,-211.91044,63.126762)"/><polyline style="stroke-width:12.6820428;stroke-miterlimit:4;stroke-dasharray:none" id="polyline128" points="4783 2598 4783 3070" transform="matrix(1.0598349,0,0,1.0477876,-211.91044,-157.78641)"/><polyline style="stroke-width:12.6820428;stroke-miterlimit:4;stroke-dasharray:none" id="polyline130" points="4606 2598 4606 3070" transform="matrix(1.0598349,0,0,1.0477876,-211.91044,-157.78641)"/><polyline style="stroke-width:12.6820428;stroke-miterlimit:4;stroke-dasharray:none" id="polyline132" points="4429 2598 4429 3070" transform="matrix(1.0598349,0,0,1.0477876,-211.91044,-157.78641)"/><polyline style="stroke-width:12.6820428;stroke-miterlimit:4;stroke-dasharray:none" id="polyline134" points="4251 2598 4251 3070" transform="matrix(1.0598349,0,0,1.0477876,-211.91044,-157.78641)"/><polyline style="stroke-width:12.6820428;stroke-miterlimit:4;stroke-dasharray:none" id="polyline136" points="4074 2598 4074 3070" transform="matrix(1.0598349,0,0,1.0477876,-211.91044,-157.78641)"/><polyline style="stroke-width:12.6820428;stroke-miterlimit:4;stroke-dasharray:none" id="polyline138" points="3898 2598 3898 3070" transform="matrix(1.0598349,0,0,1.0477876,-211.91044,-157.78641)"/><polyline style="stroke-width:12.6820428;stroke-miterlimit:4;stroke-dasharray:none" id="polyline140" points="3720 2598 3720 3070" transform="matrix(1.0598349,0,0,1.0477876,-211.91044,-157.78641)"/><polyline style="stroke-width:25.36408559;stroke-miterlimit:4;stroke-dasharray:none" id="polyline142" points="9212 2456 9212 3070" transform="matrix(1.0598349,0,0,1.0477876,-211.91044,-157.78641)"/><polyline style="stroke-width:17.75485992;stroke-miterlimit:4;stroke-dasharray:none" id="polyline144" points="3543 2598 9212 2598" transform="matrix(1.0598349,0,0,1.0477876,-207.27136,-151.61082)"/><polyline style="stroke-width:18.04502869;stroke-miterlimit:4;stroke-dasharray:none" id="polyline146" points="9212 3070 3720 3070 0 3070" transform="matrix(0.65314228,0,0,1.0477876,3541.5006,-157.82019)"/><polyline id="polyline178" points="3118 3590 2834 3779" transform="matrix(1.0598349,0,0,1.0477876,-211.91044,-157.78641)" style="stroke:#00f"/><polyline id="polyline180" points="1322 3590 1039 3779" transform="matrix(1.0598349,0,0,1.0477876,-211.91044,-157.78641)" style="stroke:#00f"/><polyline id="polyline184" points="4913 3590 4629 3779" transform="matrix(1.0598349,0,0,1.0477876,-211.91044,-157.78641)" style="stroke:#00f"/><polyline id="polyline186" points="6519 3590 6236 3779" transform="matrix(1.0598349,0,0,1.0477876,-211.91044,-157.78641)" style="stroke:#00f"/><polyline id="polyline188" points="8314 3590 8031 3779" transform="matrix(1.0598349,0,0,1.0477876,-211.91044,-157.78641)" style="stroke:#00f"/><polyline id="polyline204" points="9212 3070 9070 3307 8314 3307 8173 3543 8031 3307 7228 3307 7086 3070" transform="matrix(1.0598349,0,0,1.0477876,-211.91044,-157.78641)" style="stroke:#00f"/><polyline id="polyline206" points="3898 3070 4015 3307 4629 3307 4771 3543 4913 3307 5385 3307 5491 3070" transform="matrix(1.0598349,0,0,1.0477876,-211.91044,-157.78641)" style="stroke:#00f"/><polyline id="polyline208" points="5491 3070 5622 3307 6236 3307 6377 3543 6519 3307 6909 3307 7086 3070" transform="matrix(1.0598349,0,0,1.0477876,-211.91044,-157.78641)" style="stroke:#00f"/><polyline id="polyline210" points="2303 3070 2409 3307 2834 3307 2976 3543 3118 3307 3779 3307 3898 3070" transform="matrix(1.0598349,0,0,1.0477876,-211.91044,-157.78641)" style="stroke:#00f"/><polyline id="polyline212" points="708 3070 850 3307 1039 3307 1181 3543 1322 3307 2173 3307 2303 3070" transform="matrix(1.0598349,0,0,1.0477876,-211.91044,-157.78641)" style="stroke:#00f"/><g id="g242" style="fill:#000;stroke-width:0"><text style="font-style:normal;font-variant:normal;font-weight:400;font-stretch:normal;font-size:183.7585907px;line-height:125%;font-family:'Helvetica Narrow';-inkscape-font-specification:'Helvetica Narrow, Normal';text-align:end;writing-mode:lr-tb;text-anchor:end;stroke-width:0" id="text246" x="3484.953" y="2529.538" font-size="152" font-style="normal" font-weight="normal" transform="scale(1.0057325,0.99430017)" xml:space="preserve">32</text><text style="font-style:normal;font-variant:normal;font-weight:400;font-stretch:normal;font-size:183.7585907px;line-height:125%;font-family:'Helvetica Narrow';-inkscape-font-specification:'Helvetica Narrow, Normal';text-align:end;writing-mode:lr-tb;text-anchor:end;stroke-width:0" id="text248" x="2305.732" y="2529.538" font-size="152" font-style="normal" font-weight="normal" transform="scale(1.0057325,0.99430017)" xml:space="preserve">39</text><text style="font-style:normal;font-variant:normal;font-weight:400;font-stretch:normal;font-size:183.7585907px;line-height:125%;font-family:'Helvetica Narrow';-inkscape-font-specification:'Helvetica Narrow, Normal';text-align:end;writing-mode:lr-tb;text-anchor:end;stroke-width:0" id="text250" x="1965.151" y="2529.538" font-size="152" font-style="normal" font-weight="normal" transform="scale(1.0057325,0.99430017)" xml:space="preserve">40</text><text style="font-style:normal;font-variant:normal;font-weight:400;font-stretch:normal;font-size:183.7585907px;line-height:125%;font-family:'Helvetica Narrow';-inkscape-font-specification:'Helvetica Narrow, Normal';text-align:end;writing-mode:lr-tb;text-anchor:end;stroke-width:0" id="text252" x="480.462" y="2529.538" font-size="152" font-style="normal" font-weight="normal" transform="scale(1.0057325,0.99430017)" xml:space="preserve">48</text><text style="font-style:normal;font-variant:normal;font-weight:400;font-stretch:normal;font-size:183.7585907px;line-height:125%;font-family:'Helvetica Narrow';-inkscape-font-specification:'Helvetica Narrow, Normal';text-align:end;writing-mode:lr-tb;text-anchor:end;stroke-width:0" id="text262" x="9458.911" y="2529.538" font-size="152" font-style="normal" font-weight="normal" transform="scale(1.0057325,0.99430017)" xml:space="preserve">0</text><text style="font-style:normal;font-variant:normal;font-weight:400;font-stretch:normal;font-size:183.7585907px;line-height:125%;font-family:'Helvetica Narrow';-inkscape-font-specification:'Helvetica Narrow, Normal';text-align:end;writing-mode:lr-tb;text-anchor:end;stroke-width:0" id="text264" x="7965.685" y="2529.538" font-size="152" font-style="normal" font-weight="normal" transform="scale(1.0057325,0.99430017)" xml:space="preserve">8</text><text style="font-style:normal;font-variant:normal;font-weight:400;font-stretch:normal;font-size:183.7585907px;line-height:125%;font-family:'Helvetica Narrow';-inkscape-font-specification:'Helvetica Narrow, Normal';text-align:end;writing-mode:lr-tb;text-anchor:end;stroke-width:0" id="text266" x="6445.883" y="2529.538" font-size="152" font-style="normal" font-weight="normal" transform="scale(1.0057325,0.99430017)" xml:space="preserve">16</text><text style="font-style:normal;font-variant:normal;font-weight:400;font-stretch:normal;font-size:183.7585907px;line-height:125%;font-family:'Helvetica Narrow';-inkscape-font-specification:'Helvetica Narrow, Normal';text-align:end;writing-mode:lr-tb;text-anchor:end;stroke-width:0" id="text268" x="4978.179" y="2529.538" font-size="152" font-style="normal" font-weight="normal" transform="scale(1.0057325,0.99430017)" xml:space="preserve">24</text><text style="font-style:normal;font-variant:normal;font-weight:400;font-stretch:normal;font-size:183.7585907px;line-height:125%;font-family:'Helvetica Narrow';-inkscape-font-specification:'Helvetica Narrow, Normal';text-align:end;writing-mode:lr-tb;text-anchor:end;stroke-width:0" id="text270" x="3796.071" y="2529.538" font-size="152" font-style="normal" font-weight="normal" transform="scale(1.0057325,0.99430017)" xml:space="preserve">31</text><text style="font-style:normal;font-variant:normal;font-weight:400;font-stretch:normal;font-size:183.7585907px;line-height:125%;font-family:'Helvetica Narrow';-inkscape-font-specification:'Helvetica Narrow, Normal';text-align:end;writing-mode:lr-tb;text-anchor:end;stroke-width:0" id="text272" x="6782.523" y="2529.538" font-size="152" font-style="normal" font-weight="normal" transform="scale(1.0057325,0.99430017)" xml:space="preserve">15</text><text style="font-style:normal;font-variant:normal;font-weight:400;font-stretch:normal;font-size:183.7585907px;line-height:125%;font-family:'Helvetica Narrow';-inkscape-font-specification:'Helvetica Narrow, Normal';text-align:end;writing-mode:lr-tb;text-anchor:end;stroke-width:0" id="text274" x="8167.352" y="2529.538" font-size="152" font-style="normal" font-weight="normal" transform="scale(1.0057325,0.99430017)" xml:space="preserve">7</text><text style="font-style:normal;font-variant:normal;font-weight:400;font-stretch:normal;font-size:183.7585907px;line-height:125%;font-family:'Helvetica Narrow';-inkscape-font-specification:'Helvetica Narrow, Normal';text-align:end;writing-mode:lr-tb;text-anchor:end;stroke-width:0" id="text276" x="5289.297" y="2529.538" font-size="152" font-style="normal" font-weight="normal" transform="scale(1.0057325,0.99430017)" xml:space="preserve">23</text><text style="font-style:normal;font-variant:normal;font-weight:400;font-stretch:normal;font-size:300.69586182px;line-height:125%;font-family:Helvetica;-inkscape-font-specification:'Helvetica, Normal';text-align:center;writing-mode:lr-tb;text-anchor:middle;stroke-width:0" id="text348" x="1074.578" y="4269.333" font-size="152" font-style="normal" font-weight="normal" transform="scale(1.0057325,0.99430017)"><tspan id="tspan3501" style="font-style:normal;font-variant:normal;font-weight:400;font-stretch:normal;font-size:300.69586182px;line-height:125%;font-family:Helvetica;-inkscape-font-specification:'Helvetica, Normal';text-align:center;writing-mode:lr-tb;text-anchor:middle;stroke-width:0">P4 index</tspan></text><text style="font-style:normal;font-weight:400;font-size:160.17668152px;font-family:Helvetica;text-anchor:start;fill:#00f;stroke-width:0" id="text350" x="3124.555" y="3774.068" font-size="152" font-style="normal" font-weight="normal" transform="scale(1.0057325,0.99430016)">9</text><text style="font-style:normal;font-weight:400;font-size:160.17668152px;font-family:Helvetica;text-anchor:start;fill:#00f;stroke-width:0" id="text352" x="1232.995" y="3774.068" font-size="152" font-style="normal" font-weight="normal" transform="scale(1.0057325,0.99430016)">9</text><text style="font-style:normal;font-weight:400;font-size:160.17668152px;font-family:Helvetica;text-anchor:start;fill:#00f;stroke-width:0" id="text356" x="5016.116" y="3774.068" font-size="152" font-style="normal" font-weight="normal" transform="scale(1.0057325,0.99430016)">9</text><text style="font-style:normal;font-weight:400;font-size:160.17668152px;font-family:Helvetica;text-anchor:start;fill:#00f;stroke-width:0" id="text358" x="6708.509" y="3774.068" font-size="152" font-style="normal" font-weight="normal" transform="scale(1.0057325,0.99430016)">9</text><text style="font-style:normal;font-weight:400;font-size:160.17668152px;font-family:Helvetica;text-anchor:start;fill:#00f;stroke-width:0" id="text360" x="8601.122" y="3774.068" font-size="152" font-style="normal" font-weight="normal" transform="scale(1.0057325,0.99430016)">12</text><text style="font-style:normal;font-variant:normal;font-weight:400;font-stretch:normal;font-size:183.7585907px;line-height:125%;font-family:'Helvetica Narrow';-inkscape-font-specification:'Helvetica Narrow, Normal';text-align:end;writing-mode:lr-tb;text-anchor:end;fill:#000;stroke:#000;stroke-width:0;stroke-linecap:butt;stroke-linejoin:miter" id="text252-5" x="809.519" y="2529.538" font-size="152" font-style="normal" font-weight="normal" transform="scale(1.0057325,0.99430017)" xml:space="preserve">47</text><text style="font-style:normal;font-variant:normal;font-weight:400;font-stretch:normal;font-size:183.7585907px;line-height:125%;font-family:'Helvetica Narrow';-inkscape-font-specification:'Helvetica Narrow, Normal';text-align:end;writing-mode:lr-tb;text-anchor:end;fill:#000;stroke:#000;stroke-width:0;stroke-linecap:butt;stroke-linejoin:miter" id="text252-4" x="-684.952" y="2529.538" font-size="152" font-style="normal" font-weight="normal" transform="scale(1.0057325,0.99430017)" xml:space="preserve">55</text><text style="font-style:normal;font-variant:normal;font-weight:400;font-stretch:normal;font-size:183.7585907px;line-height:125%;font-family:'Helvetica Narrow';-inkscape-font-specification:'Helvetica Narrow, Normal';text-align:end;writing-mode:lr-tb;text-anchor:end;fill:#000;stroke:#000;stroke-width:0;stroke-linecap:butt;stroke-linejoin:miter" id="text252-4-7" x="-1034.712" y="2529.538" font-size="152" font-style="normal" font-weight="normal" transform="scale(1.0057325,0.99430017)" xml:space="preserve">56</text><text style="font-style:normal;font-variant:normal;font-weight:400;font-stretch:normal;font-size:183.7585907px;line-height:125%;font-family:'Helvetica Narrow';-inkscape-font-specification:'Helvetica Narrow, Normal';text-align:end;writing-mode:lr-tb;text-anchor:end;fill:#000;stroke:#000;stroke-width:0;stroke-linecap:butt;stroke-linejoin:miter" id="text252-4-7-3" x="-2201.291" y="2529.538" font-size="152" font-style="normal" font-weight="normal" transform="scale(1.0057325,0.99430017)" xml:space="preserve">63</text><polyline id="polyline180-0" points="1322 3590 1039 3779" transform="matrix(1.0598349,0,0,1.0477876,-2192.9027,-160.09714)" style="fill:none;stroke:#00f;stroke-width:8;stroke-linecap:butt;stroke-linejoin:miter"/><text style="font-style:normal;font-weight:400;font-size:160.17668152px;font-family:Helvetica;text-anchor:start;fill:#00f;stroke:#000;stroke-width:0;stroke-linecap:butt;stroke-linejoin:miter" id="text352-2" x="-736.706" y="3771.744" font-size="152" font-style="normal" font-weight="normal" transform="scale(1.0057325,0.99430016)">16</text><path id="path4175" d="m -929.72072,3549.5659 0,431.3931" style="fill:none;fill-rule:evenodd;stroke:#00f;stroke-width:14.08317852px;stroke-linecap:butt;stroke-linejoin:miter;stroke-opacity:1"/><path id="path4175-3" d="m 1039.4204,3550.0043 0,431.3933" style="fill:none;fill-rule:evenodd;stroke:#00f;stroke-width:14.08317852px;stroke-linecap:butt;stroke-linejoin:miter;stroke-opacity:1"/><path id="path4175-3-8" d="m 2942.7798,3549.8477 0,431.3932" style="fill:none;fill-rule:evenodd;stroke:#00f;stroke-width:14.08317852px;stroke-linecap:butt;stroke-linejoin:miter;stroke-opacity:1"/><path id="path4175-3-8-6" d="m 4844.585,3551.0064 0,431.3933" style="fill:none;fill-rule:evenodd;stroke:#00f;stroke-width:14.08317852px;stroke-linecap:butt;stroke-linejoin:miter;stroke-opacity:1"/><path id="path4175-3-8-6-3" d="m 6546.975,3551.1192 0,431.3932" style="fill:none;fill-rule:evenodd;stroke:#00f;stroke-width:14.08317852px;stroke-linecap:butt;stroke-linejoin:miter;stroke-opacity:1"/><path id="path4175-3-8-6-3-5" d="m 8449.877,3550.1734 0,431.3931" style="fill:none;fill-rule:evenodd;stroke:#00f;stroke-width:14.08317852px;stroke-linecap:butt;stroke-linejoin:miter;stroke-opacity:1"/><text style="font-style:normal;font-variant:normal;font-weight:400;font-stretch:normal;font-size:300.69586182px;line-height:125%;font-family:Helvetica;-inkscape-font-specification:'Helvetica, Normal';text-align:center;writing-mode:lr-tb;text-anchor:middle;fill:#000;stroke:#000;stroke-width:0;stroke-linecap:butt;stroke-linejoin:miter" id="text348-3" x="-980.589" y="4269.333" font-size="152" font-style="normal" font-weight="normal" transform="scale(1.0057325,0.99430017)"><tspan id="tspan3501-0" style="font-style:normal;font-variant:normal;font-weight:400;font-stretch:normal;font-size:300.69586182px;line-height:125%;font-family:Helvetica;-inkscape-font-specification:'Helvetica, Normal';text-align:center;writing-mode:lr-tb;text-anchor:middle;stroke-width:0">Sign extension</tspan></text><text style="font-style:normal;font-variant:normal;font-weight:400;font-stretch:normal;font-size:300.69586182px;line-height:125%;font-family:Helvetica;-inkscape-font-specification:'Helvetica, Normal';text-align:center;writing-mode:lr-tb;text-anchor:middle;fill:#000;stroke:#000;stroke-width:0;stroke-linecap:butt;stroke-linejoin:miter" id="text348-1" x="4862.674" y="4269.333" font-size="152" font-style="normal" font-weight="normal" transform="scale(1.0057325,0.99430017)"><tspan id="tspan3501-5" style="font-style:normal;font-variant:normal;font-weight:400;font-stretch:normal;font-size:300.69586182px;line-height:125%;font-family:Helvetica;-inkscape-font-specification:'Helvetica, Normal';text-align:center;writing-mode:lr-tb;text-anchor:middle;stroke-width:0">P2 index</tspan></text><text style="font-style:normal;font-variant:normal;font-weight:400;font-stretch:normal;font-size:300.69586182px;line-height:125%;font-family:Helvetica;-inkscape-font-specification:'Helvetica, Normal';text-align:center;writing-mode:lr-tb;text-anchor:middle;fill:#000;stroke:#000;stroke-width:0;stroke-linecap:butt;stroke-linejoin:miter" id="text348-1-3" x="2919.961" y="4269.333" font-size="152" font-style="normal" font-weight="normal" transform="scale(1.0057325,0.99430017)"><tspan id="tspan3501-5-8" style="font-style:normal;font-variant:normal;font-weight:400;font-stretch:normal;font-size:300.69586182px;line-height:125%;font-family:Helvetica;-inkscape-font-specification:'Helvetica, Normal';text-align:center;writing-mode:lr-tb;text-anchor:middle;stroke-width:0">P3 index</tspan></text><text style="font-style:normal;font-variant:normal;font-weight:400;font-stretch:normal;font-size:300.69586182px;line-height:125%;font-family:Helvetica;-inkscape-font-specification:'Helvetica, Normal';text-align:center;writing-mode:lr-tb;text-anchor:middle;fill:#000;stroke:#000;stroke-width:0;stroke-linecap:butt;stroke-linejoin:miter" id="text348-1-5" x="6532.301" y="4269.333" font-size="152" font-style="normal" font-weight="normal" transform="scale(1.0057325,0.99430017)"><tspan id="tspan3501-5-9" style="font-style:normal;font-variant:normal;font-weight:400;font-stretch:normal;font-size:300.69586182px;line-height:125%;font-family:Helvetica;-inkscape-font-specification:'Helvetica, Normal';text-align:center;writing-mode:lr-tb;text-anchor:middle;stroke-width:0">P1 index</tspan></text><text style="font-style:normal;font-variant:normal;font-weight:400;font-stretch:normal;font-size:300.69586182px;line-height:125%;font-family:Helvetica;-inkscape-font-specification:'Helvetica, Normal';text-align:center;writing-mode:lr-tb;text-anchor:middle;fill:#000;stroke:#000;stroke-width:0;stroke-linecap:butt;stroke-linejoin:miter" id="text348-1-5-5" x="8392.052" y="4269.333" font-size="152" font-style="normal" font-weight="normal" transform="scale(1.0057325,0.99430017)"><tspan id="tspan3501-5-9-5" style="font-style:normal;font-variant:normal;font-weight:400;font-stretch:normal;font-size:300.69586182px;line-height:125%;font-family:Helvetica;-inkscape-font-specification:'Helvetica, Normal';text-align:center;writing-mode:lr-tb;text-anchor:middle;stroke-width:0">Offset</tspan></text></g><polyline id="polyline10-3" points="3365 2598 3365 3070" transform="matrix(1.0598349,0,0,1.0477876,-3218.4788,-157.56699)" style="fill:none;stroke:#000;stroke-width:12.6820428;stroke-linecap:butt;stroke-linejoin:miter;stroke-miterlimit:4;stroke-dasharray:none"/><polyline id="polyline12-5" points="3189 2598 3189 3070" transform="matrix(1.0598349,0,0,1.0477876,-3218.4788,-157.56699)" style="fill:none;stroke:#000;stroke-width:12.6820428;stroke-linecap:butt;stroke-linejoin:miter;stroke-miterlimit:4;stroke-dasharray:none"/><polyline id="polyline14-6" points="3012 2598 3012 3070" transform="matrix(1.0598349,0,0,1.0477876,-3218.4788,-157.56699)" style="fill:none;stroke:#000;stroke-width:12.6820428;stroke-linecap:butt;stroke-linejoin:miter;stroke-miterlimit:4;stroke-dasharray:none"/><polyline id="polyline16-9" points="2834 2598 2834 3070" transform="matrix(1.0598349,0,0,1.0477876,-3218.4788,-157.56699)" style="fill:none;stroke:#000;stroke-width:12.6820428;stroke-linecap:butt;stroke-linejoin:miter;stroke-miterlimit:4;stroke-dasharray:none"/><polyline id="polyline18-9" points="2657 2598 2657 3070" transform="matrix(1.0598349,0,0,1.0477876,-3218.4788,-157.56699)" style="fill:none;stroke:#000;stroke-width:12.6820428;stroke-linecap:butt;stroke-linejoin:miter;stroke-miterlimit:4;stroke-dasharray:none"/><polyline id="polyline20-8" points="2480 2598 2480 3070" transform="matrix(1.0598349,0,0,1.0477876,-3218.4788,-157.56699)" style="fill:none;stroke:#000;stroke-width:12.6820428;stroke-linecap:butt;stroke-linejoin:miter;stroke-miterlimit:4;stroke-dasharray:none"/><polyline id="polyline22-2" points="2303 2598 2303 3070" transform="matrix(1.0598349,0,0,1.0477876,-3218.4788,-157.56699)" style="fill:none;stroke:#000;stroke-width:12.6820428;stroke-linecap:butt;stroke-linejoin:miter;stroke-miterlimit:4;stroke-dasharray:none"/><polyline id="polyline24-5" points="2125 2456 2125 3070" transform="matrix(1.0598349,0,0,1.0477876,-3218.4788,-157.56699)" style="fill:none;stroke:#000;stroke-width:25.36408559;stroke-linecap:butt;stroke-linejoin:miter;stroke-miterlimit:4;stroke-dasharray:none"/><polyline id="polyline26-2" points="1948 2598 1948 3070" transform="matrix(1.0598349,0,0,1.0477876,-3218.4788,-157.56699)" style="fill:none;stroke:#000;stroke-width:12.6820428;stroke-linecap:butt;stroke-linejoin:miter;stroke-miterlimit:4;stroke-dasharray:none"/><polyline id="polyline28-1" points="1772 2598 1772 3070" transform="matrix(1.0598349,0,0,1.0477876,-3218.4788,-157.56699)" style="fill:none;stroke:#000;stroke-width:12.6820428;stroke-linecap:butt;stroke-linejoin:miter;stroke-miterlimit:4;stroke-dasharray:none"/><polyline id="polyline30-5" points="1594 2598 1594 3070" transform="matrix(1.0598349,0,0,1.0477876,-3218.4788,-157.56699)" style="fill:none;stroke:#000;stroke-width:12.6820428;stroke-linecap:butt;stroke-linejoin:miter;stroke-miterlimit:4;stroke-dasharray:none"/><polyline id="polyline32-9" points="1417 2598 1417 3070" transform="matrix(1.0598349,0,0,1.0477876,-3218.4788,-157.56699)" style="fill:none;stroke:#000;stroke-width:12.6820428;stroke-linecap:butt;stroke-linejoin:miter;stroke-miterlimit:4;stroke-dasharray:none"/><polyline id="polyline34-3" points="1239 2598 1239 3070" transform="matrix(1.0598349,0,0,1.0477876,-3218.4788,-157.56699)" style="fill:none;stroke:#000;stroke-width:12.6820428;stroke-linecap:butt;stroke-linejoin:miter;stroke-miterlimit:4;stroke-dasharray:none"/><polyline id="polyline36-9" points="1063 2598 1063 3070" transform="matrix(1.0598349,0,0,1.0477876,-3218.4788,-157.56699)" style="fill:none;stroke:#000;stroke-width:12.6820428;stroke-linecap:butt;stroke-linejoin:miter;stroke-miterlimit:4;stroke-dasharray:none"/><polyline id="polyline38-2" points="886 2598 886 3070" transform="matrix(1.0598349,0,0,1.0477876,-3218.4788,-157.56699)" style="fill:none;stroke:#000;stroke-width:12.6820428;stroke-linecap:butt;stroke-linejoin:miter;stroke-miterlimit:4;stroke-dasharray:none"/><polyline id="polyline40-6" points="708 2456 708 3070" transform="matrix(1.0598349,0,0,1.0477876,-3218.4788,-157.56699)" style="fill:none;stroke:#000;stroke-width:25.36408559;stroke-linecap:butt;stroke-linejoin:miter;stroke-miterlimit:4;stroke-dasharray:none"/><polyline id="polyline76-6" points="-2125 2598 3543 2598" transform="matrix(0.52969421,0,0,1.0477875,-1349.4687,-150.28545)" style="fill:none;stroke:#000;stroke-width:17.93889618;stroke-linecap:butt;stroke-linejoin:miter;stroke-miterlimit:4;stroke-dasharray:none"/><polyline id="polyline78-8" points="3543 3070 -1948 3070 -2125 3070" transform="matrix(0.52765914,0,0,1.0477875,-1332.9803,-157.56699)" style="fill:none;stroke:#000;stroke-width:17.97345674;stroke-linecap:butt;stroke-linejoin:miter;stroke-miterlimit:4;stroke-dasharray:none"/><polyline id="polyline204-3" points="9212 3070 9070 3307 8314 3307 8173 3543 8031 3307 7228 3307 7086 3070" transform="matrix(1.4116086,0,0,1.0450205,-12466.637,-150.55138)" style="fill:none;stroke:#00f;stroke-width:8;stroke-linecap:butt;stroke-linejoin:miter"/></g></svg>