<svg xmlns="http://www.w3.org/2000/svg" xmlns:svg="http://www.w3.org/2000/svg" id="svg2" width="700.546" height="396.281" version="1.1" viewBox="-2141 2141 8777.135 4929.281"><metadata id="metadata370"/><g style="fill:none;stroke:#000;stroke-width:8;stroke-linecap:butt;stroke-linejoin:miter" id="g4" transform="translate(-2845,-286.64442)"><rect style="fill:#dfdfdf" id="rect8" width="708" height="3307" x="8503" y="4015" rx="0"/><polyline id="polyline10" points="3365 2598 3365 3070"/><polyline id="polyline12" points="3189 2598 3189 3070"/><polyline id="polyline14" points="3012 2598 3012 3070"/><polyline id="polyline16" points="2834 2598 2834 3070"/><polyline id="polyline18" points="2657 2598 2657 3070"/><polyline id="polyline20" points="2480 2598 2480 3070"/><polyline id="polyline22" points="2303 2598 2303 3070"/><polyline id="polyline24" points="2125 2456 2125 3070"/><polyline id="polyline26" points="1948 2598 1948 3070"/><polyline id="polyline28" points="1772 2598 1772 3070"/><polyline id="polyline30" points="1594 2598 1594 3070"/><polyline id="polyline32" points="1417 2598 1417 3070"/><polyline id="polyline34" points="1239 2598 1239 3070"/><polyline id="polyline36" points="1063 2598 1063 3070"/><polyline id="polyline38" points="886 2598 886 3070"/><polyline id="polyline40" points="708 2456 708 3070"/><polyline id="polyline74" points="3543 2456 3543 3070"/><polyline id="polyline76" points="-2125 2598 3543 2598" transform="matrix(0.49978943,0,0,1,1772.2461,0)"/><polyline id="polyline78" points="3543 3070 -1948 3070 -2125 3070" transform="matrix(0.49786923,0,0,1,1779.0493,0)"/><polyline id="polyline80" points="9035 2598 9035 3070"/><polyline id="polyline82" points="8858 2598 8858 3070"/><polyline id="polyline84" points="8681 2598 8681 3070"/><polyline id="polyline86" points="8503 2598 8503 3070"/><polyline id="polyline88" points="8326 2598 8326 3070"/><polyline id="polyline90" points="8150 2598 8150 3070"/><polyline id="polyline92" points="7972 2598 7972 3070"/><polyline id="polyline94" points="7795 2456 7795 3070"/><polyline id="polyline96" points="7617 2598 7617 3070"/><polyline id="polyline98" points="7441 2598 7441 3070"/><polyline id="polyline100" points="7264 2598 7264 3070"/><polyline id="polyline102" points="7086 2598 7086 3070"/><polyline id="polyline104" points="6909 2598 6909 3070"/><polyline id="polyline106" points="6732 2598 6732 3070"/><polyline id="polyline108" points="6555 2598 6555 3070"/><polyline id="polyline110" points="6377 2456 6377 3070"/><polyline id="polyline112" points="6200 2598 6200 3070"/><polyline id="polyline114" points="6024 2598 6024 3070"/><polyline id="polyline116" points="5846 2598 5846 3070"/><polyline id="polyline118" points="5669 2598 5669 3070"/><polyline id="polyline120" points="5491 2598 5491 3070"/><polyline id="polyline122" points="5315 2598 5315 3070"/><polyline id="polyline124" points="5138 2598 5138 3070"/><polyline id="polyline126" points="4960 2409 4960 3070"/><polyline id="polyline128" points="4783 2598 4783 3070"/><polyline id="polyline130" points="4606 2598 4606 3070"/><polyline id="polyline132" points="4429 2598 4429 3070"/><polyline id="polyline134" points="4251 2598 4251 3070"/><polyline id="polyline136" points="4074 2598 4074 3070"/><polyline id="polyline138" points="3898 2598 3898 3070"/><polyline id="polyline140" points="3720 2598 3720 3070"/><polyline id="polyline142" points="9212 2456 9212 3070"/><polyline id="polyline144" points="3543 2598 9212 2598"/><polyline id="polyline146" points="9212 3070 3720 3070 0 3070" transform="matrix(0.92335242,0,0,1,706.07747,0)"/><rect style="fill:#dfdfdf" id="rect148" width="1181" height="2362" x="5102" y="4488" rx="0"/><rect style="fill:#dfdfdf" id="rect150" width="1181" height="2362" x="3307" y="4251" rx="0"/><rect style="fill:#dfdfdf" id="rect152" width="1181" height="2362" x="6897" y="4724" rx="0"/><rect style="fill:#dfdfdf" id="rect154" width="1181" height="2362" x="1511" y="4015" rx="0"/><rect id="rect156" width="1417" height="472" x="1417" y="6850" rx="0"/><rect style="fill:#dfdfdf" id="rect158" width="708" height="236" x="8503" y="5433" rx="0"/><rect id="rect160" width="1181" height="472" x="5102" y="5669" rx="0"/><rect id="rect162" width="1181" height="472" x="3307" y="5433" rx="0"/><rect id="rect164" width="1181" height="472" x="6897" y="5905" rx="0"/><rect id="rect166" width="1181" height="472" x="1511" y="5196" rx="0"/><circle style="fill:#00f;stroke:#00f;stroke-width:32" id="circle170" cx="6141" cy="5905" r="47"/><circle style="fill:#00f;stroke:#00f;stroke-width:32" id="circle172" cx="4346" cy="5669" r="47"/><circle style="fill:#00f;stroke:#00f;stroke-width:32" id="circle174" cx="7937" cy="6141" r="47"/><circle style="fill:#00f;stroke:#00f;stroke-width:32" id="circle176" cx="2551" cy="5433" r="47"/><polyline style="stroke:#00f" id="polyline178" points="3118 3590 2834 3779"/><polyline style="stroke:#00f" id="polyline180" points="1322 3590 1039 3779"/><polyline style="stroke:#00f" id="polyline184" points="4913 3590 4629 3779"/><polyline style="stroke:#00f" id="polyline186" points="6519 3590 6236 3779"/><polyline style="stroke:#00f" id="polyline188" points="8314 3590 8031 3779"/><circle style="fill:#00f;stroke:#00f;stroke-width:32" id="circle190" cx="1653" cy="7086" r="47"/><polyline style="stroke:#00f" id="polyline192" points="1653 7086 1181 7086 1181 6377 1354 6377"/><polygon style="fill:#00f;stroke:#00f" id="polygon194" points="1512 6377 1355 6330 1355 6425 1355 6425"/><polyline style="stroke:#00f" id="polyline196" points="7937 6141 8173 6141 8173 7322 8346 7322"/><polygon style="fill:#00f;stroke:#00f" id="polygon198" points="8504 7322 8347 7275 8347 7370 8347 7370"/><polyline style="stroke:#00f" id="polyline200" points="8173 3543 8173 5669 8346 5669"/><polygon style="fill:#00f;stroke:#00f" id="polygon202" points="8504 5669 8347 5622 8347 5716 8347 5716"/><polyline style="stroke:#00f" id="polyline204" points="9212 3070 9070 3307 8314 3307 8173 3543 8031 3307 7228 3307 7086 3070"/><polyline style="stroke:#00f" id="polyline206" points="3898 3070 4015 3307 4629 3307 4771 3543 4913 3307 5385 3307 5491 3070"/><polyline style="stroke:#00f" id="polyline208" points="5491 3070 5622 3307 6236 3307 6377 3543 6519 3307 6909 3307 7086 3070"/><polyline style="stroke:#00f" id="polyline210" points="2303 3070 2409 3307 2834 3307 2976 3543 3118 3307 3779 3307 3898 3070"/><polyline style="stroke:#00f" id="polyline212" points="708 3070 850 3307 1039 3307 1181 3543 1322 3307 2173 3307 2303 3070"/><polyline style="stroke:#00f" id="polyline214" points="4771 3543 4771 6141 4944 6141"/><polygon style="fill:#00f;stroke:#00f" id="polygon216" points="5103 6141 4945 6094 4945 6188 4945 6188"/><polyline style="stroke:#00f" id="polyline218" points="6377 3543 6377 4015 6519 4157 6519 6377 6740 6377"/><polygon style="fill:#00f;stroke:#00f" id="polygon220" points="6898 6377 6741 6330 6741 6425 6741 6425"/><polyline style="stroke:#00f" id="polyline222" points="6141 5905 6377 5905 6377 7086 6740 7086"/><polygon style="fill:#00f;stroke:#00f" id="polygon224" points="6898 7086 6741 7039 6741 7133 6741 7133"/><polyline style="stroke:#00f" id="polyline226" points="4346 5669 4629 5669 4629 6850 4944 6850"/><polygon style="fill:#00f;stroke:#00f" id="polygon228" points="5103 6850 4945 6803 4945 6897 4945 6897"/><polyline style="stroke:#00f" id="polyline230" points="2598 5433 2834 5433 2834 6614 3149 6614"/><polygon style="fill:#00f;stroke:#00f" id="polygon232" points="3308 6614 3150 6566 3150 6661 3150 6661"/><polyline style="stroke:#00f" id="polyline234" points="1181 3543 1181 5669 1401 5669"/><polygon style="fill:#00f;stroke:#00f" id="polygon236" points="1560 5669 1402 5622 1402 5716 1402 5716"/><polyline style="stroke:#00f" id="polyline238" points="2976 3543 2976 5905 3149 5905"/><polygon style="fill:#00f;stroke:#00f" id="polygon240" points="3308 5905 3150 5858 3150 5952 3150 5952"/><g style="fill:#000;stroke-width:0" id="g242"><text id="text244" x="2281.814" y="7165" font-size="152" font-style="normal" font-weight="normal" xml:space="preserve" style="font-style:normal;font-weight:400;font-size:152px;font-family:Helvetica;text-anchor:middle">CR3 register</text><text id="text246" x="3507" y="2551" font-size="152" font-style="normal" font-weight="normal" xml:space="preserve" style="font-style:normal;font-weight:400;font-size:152px;font-family:'Helvetica Narrow';text-anchor:end">32</text><text id="text248" x="2161" y="2551" font-size="152" font-style="normal" font-weight="normal" xml:space="preserve" style="font-style:normal;font-weight:400;font-size:152px;font-family:'Helvetica Narrow';text-anchor:start">39</text><text id="text250" x="2090" y="2551" font-size="152" font-style="normal" font-weight="normal" xml:space="preserve" style="font-style:normal;font-weight:400;font-size:152px;font-family:'Helvetica Narrow';text-anchor:end">40</text><text id="text252" x="744" y="2551" font-size="152" font-style="normal" font-weight="normal" xml:space="preserve" style="font-style:normal;font-weight:400;font-size:152px;font-family:'Helvetica Narrow';text-anchor:start">47</text><text id="text262" x="9176" y="2551" font-size="152" font-style="normal" font-weight="normal" xml:space="preserve" style="font-style:normal;font-weight:400;font-size:152px;font-family:'Helvetica Narrow';text-anchor:end">0</text><text id="text264" x="7759" y="2551" font-size="152" font-style="normal" font-weight="normal" xml:space="preserve" style="font-style:normal;font-weight:400;font-size:152px;font-family:'Helvetica Narrow';text-anchor:end">8</text><text id="text266" x="6342" y="2551" font-size="152" font-style="normal" font-weight="normal" xml:space="preserve" style="font-style:normal;font-weight:400;font-size:152px;font-family:'Helvetica Narrow';text-anchor:end">16</text><text id="text268" x="4924" y="2551" font-size="152" font-style="normal" font-weight="normal" xml:space="preserve" style="font-style:normal;font-weight:400;font-size:152px;font-family:'Helvetica Narrow';text-anchor:end">24</text><text id="text270" x="3579" y="2551" font-size="152" font-style="normal" font-weight="normal" xml:space="preserve" style="font-style:normal;font-weight:400;font-size:152px;font-family:'Helvetica Narrow';text-anchor:start">31</text><text id="text272" x="6413" y="2551" font-size="152" font-style="normal" font-weight="normal" xml:space="preserve" style="font-style:normal;font-weight:400;font-size:152px;font-family:'Helvetica Narrow';text-anchor:start">15</text><text id="text274" x="7830" y="2551" font-size="152" font-style="normal" font-weight="normal" xml:space="preserve" style="font-style:normal;font-weight:400;font-size:152px;font-family:'Helvetica Narrow';text-anchor:start">7</text><text id="text276" x="4996" y="2551" font-size="152" font-style="normal" font-weight="normal" xml:space="preserve" style="font-style:normal;font-weight:400;font-size:152px;font-family:'Helvetica Narrow';text-anchor:start">23</text><g id="g278" transform="matrix(0,-1,1,0,8976,4724)"><text id="text280" x="0" y="0" font-size="404" font-style="normal" font-weight="normal" xml:space="preserve" style="font-style:normal;font-weight:400;font-size:404px;font-family:Helvetica;text-anchor:middle">...</text></g><g id="g282" transform="matrix(0,-1,1,0,8976,6614)"><text id="text284" x="0" y="0" font-size="404" font-style="normal" font-weight="normal" xml:space="preserve" style="font-style:normal;font-weight:400;font-size:404px;font-family:Helvetica;text-anchor:middle">...</text></g><g id="g286" transform="matrix(0,-1,1,0,9448,5622)"><text id="text288" x="0" y="0" font-size="152" font-style="normal" font-weight="normal" xml:space="preserve" style="font-style:normal;font-weight:400;font-size:152px;font-family:Helvetica;text-anchor:middle"><tspan style="font-size:200.46390561px" id="tspan3509">4K memory page</tspan></text></g><text id="text292" x="5622" y="5958.457" font-size="152" font-style="normal" font-weight="normal" xml:space="preserve" style="font-style:normal;font-weight:400;font-size:152px;font-family:Helvetica;text-anchor:middle"><tspan style="font-size:200.46391296px" id="tspan3497">P2 entry</tspan></text><g id="g296" transform="matrix(0,-1,1,0,5723,6614)"><text id="text298" x="0" y="0" font-size="404" font-style="normal" font-weight="normal" xml:space="preserve" style="font-style:normal;font-weight:400;font-size:404px;font-family:Helvetica;text-anchor:middle">...</text></g><g id="g300" transform="matrix(0,-1,1,0,5723,5196)"><text id="text302" x="0" y="0" font-size="404" font-style="normal" font-weight="normal" xml:space="preserve" style="font-style:normal;font-weight:400;font-size:404px;font-family:Helvetica;text-anchor:middle">...</text></g><text id="text304" x="5692" y="4393" font-size="152" font-style="normal" font-weight="normal" xml:space="preserve" style="font-style:normal;font-weight:400;font-size:152px;font-family:Helvetica;text-anchor:middle"><tspan style="font-size:200.46390561px" id="tspan3505">P2 table</tspan></text><g id="g306" transform="matrix(0,-1,1,0,3928,6377)"><text id="text308" x="0" y="0" font-size="404" font-style="normal" font-weight="normal" xml:space="preserve" style="font-style:normal;font-weight:400;font-size:404px;font-family:Helvetica;text-anchor:middle">...</text></g><g id="g310" transform="matrix(0,-1,1,0,3928,4960)"><text id="text312" x="0" y="0" font-size="404" font-style="normal" font-weight="normal" xml:space="preserve" style="font-style:normal;font-weight:400;font-size:404px;font-family:Helvetica;text-anchor:middle">...</text></g><text id="text314" x="3826" y="5722.457" font-size="152" font-style="normal" font-weight="normal" xml:space="preserve" style="font-style:normal;font-weight:400;font-size:152px;font-family:Helvetica;text-anchor:middle"><tspan style="font-size:200.46391296px" id="tspan3495">P3 entry</tspan></text><text id="text320" x="3874" y="4157" font-size="152" font-style="normal" font-weight="normal" xml:space="preserve" style="font-style:normal;font-weight:400;font-size:152px;font-family:Helvetica;text-anchor:middle"><tspan style="font-size:200.46390561px" id="tspan3503">P3 table</tspan></text><text id="text322" x="7417" y="6194.457" font-size="152" font-style="normal" font-weight="normal" xml:space="preserve" style="font-style:normal;font-weight:400;font-size:152px;font-family:Helvetica;text-anchor:middle"><tspan style="font-size:200.46391296px" id="tspan3499">P1 entry</tspan></text><g id="g326" transform="matrix(0,-1,1,0,7519,6850)"><text id="text328" x="0" y="0" font-size="404" font-style="normal" font-weight="normal" xml:space="preserve" style="font-style:normal;font-weight:400;font-size:404px;font-family:Helvetica;text-anchor:middle">...</text></g><g id="g330" transform="matrix(0,-1,1,0,7519,5433)"><text id="text332" x="0" y="0" font-size="404" font-style="normal" font-weight="normal" xml:space="preserve" style="font-style:normal;font-weight:400;font-size:404px;font-family:Helvetica;text-anchor:middle">...</text></g><text id="text334" x="7487" y="4629" font-size="152" font-style="normal" font-weight="normal" xml:space="preserve" style="font-style:normal;font-weight:400;font-size:152px;font-family:Helvetica;text-anchor:middle"><tspan style="font-size:200.46390561px" id="tspan3507">P1 table</tspan></text><g id="g336" transform="matrix(0,-1,1,0,2133,6141)"><text id="text338" x="0" y="0" font-size="404" font-style="normal" font-weight="normal" xml:space="preserve" style="font-style:normal;font-weight:400;font-size:404px;font-family:Helvetica;text-anchor:middle">...</text></g><g id="g340" transform="matrix(0,-1,1,0,2133,4724)"><text id="text342" x="0" y="0" font-size="404" font-style="normal" font-weight="normal" xml:space="preserve" style="font-style:normal;font-weight:400;font-size:404px;font-family:Helvetica;text-anchor:middle">...</text></g><text id="text344" x="2004.272" y="5486.457" font-size="152" font-style="normal" font-weight="normal" style="font-style:normal;font-weight:400;font-size:152px;font-family:Helvetica;text-anchor:middle"><tspan style="font-size:200.46390561px" id="tspan3493">P4 entry</tspan></text><text id="text348" x="2078" y="3941.271" font-size="152" font-style="normal" font-weight="normal" style="font-style:normal;font-weight:400;font-size:152px;font-family:Helvetica;text-anchor:middle"><tspan style="font-size:200.46391296px" id="tspan3501">P4 table</tspan></text><text id="text350" x="3165" y="3732" font-size="152" font-style="normal" font-weight="normal" style="font-style:normal;font-weight:400;font-size:152px;font-family:Helvetica;text-anchor:start;fill:#00f">9</text><text id="text352" x="1370" y="3732" font-size="152" font-style="normal" font-weight="normal" style="font-style:normal;font-weight:400;font-size:152px;font-family:Helvetica;text-anchor:start;fill:#00f">9</text><text id="text356" x="4960" y="3732" font-size="152" font-style="normal" font-weight="normal" style="font-style:normal;font-weight:400;font-size:152px;font-family:Helvetica;text-anchor:start;fill:#00f">9</text><text id="text358" x="6566" y="3732" font-size="152" font-style="normal" font-weight="normal" style="font-style:normal;font-weight:400;font-size:152px;font-family:Helvetica;text-anchor:start;fill:#00f">9</text><text id="text360" x="8362" y="3732" font-size="152" font-style="normal" font-weight="normal" style="font-style:normal;font-weight:400;font-size:152px;font-family:Helvetica;text-anchor:start;fill:#00f">12</text></g></g></svg>